<svg xmlns="http://www.w3.org/2000/svg" fill="none" viewBox="0 0 1202 250"><path fill="#333" fill-rule="evenodd" d="M166.969 48.6c1.721-1.792 7.496-5.376 16.832-5.376-5.237-2.388-22.442-6.091-49.373-1.791 9.8-5.002 29.848-20.291 31.643-41.433-6.433 9.257-26.436 30.01-54.983 38.969 5.536-4.927 15.665-18.768 11.895-34.714-4.638 10.526-21.545 33.818-52.066 42.777-3.441 1.045-11.311 4.927-15.26 15.677-1.497 2.911-7.496 9.316-19.525 11.645-2.619.225-8.304 0-10.324 0-1.272.3-3.59 1.792-4.264 4.48-.395 1.567-1.257 5.106 0 9.406 2.17 4.18 8.841 12.9 18.177 14.333-1.646-1.866-3.95-6.494 0-10.078 1.272-.149 4.22-.358 5.835 0 1.616.359 10.249-3.285 14.363-5.15 3.74-1.345 12.208-3.181 16.158.223s-3.74 7.54-8.079 9.183c-1.72 1.045-6.418 4.434-11.445 9.63s-11.67 3.061-14.363 1.344c-.15 3.881 2.244 11.735 13.016 12.093 2.02.15 7.226-1.03 11.894-6.942 4.668-5.913 12.12-8.063 15.037-8.959 1.346-.413 4.084-1.299 5.161-1.12 8.753 1.12 27.263-.895 33.008-18.812 12.343 3.21 30.521 15.23 4.488 37.625-5.162 3.658-18.627 11.229-29.623 16.125-14.588 6.495-67.327 29.339-83.036 47.032C6.585 190.347.034 200.545 0 211.832c-.026 8.947 4.042 18.577 15.95 27.133 11.037 7.93 26.828 10.829 43.274 11.024 33.712.401 70.178-10.558 74.1-12.816 28.277-12.467 93.539-38.655 128.369-43.672 43.537-6.271 73.834-.224 78.547 2.24-9.949-5.823-40.485-16.439-83.036-12.318v-24.86c.973-2.986 4.668-8.958 11.67-8.958s9.8 5.524 10.324 8.286v17.469c11.52-.746 41.338 1.478 68.448 16.349l-5.386-64.948-12.792-4.479v11.646l-8.528-2.912V119.37l-12.568-4.031v12.318l-8.079-2.912v-11.422l-11.221-3.359-11.221 3.359v11.422l-8.977 2.912v-12.318l-14.138 4.031v12.542l-8.977 2.016v-11.646l-14.812 4.479-.898 31.802c-10.996 2.538-44.66 12.811-91.339 33.594-58.35 25.98-73.548 19.731-84.831 20.381-11.67.671-37.254-16.126-15.037-32.923-2.693 3.061-6.239 11.288 1.123 19.709 7.36 8.421 24.312 7.689 31.867 6.271 1.87-4.255 15.079-16.752 52.962-32.698s50.945-23.815 52.741-25.756c12.941-7.465 37.209-29.517 30.745-58.005-6.463-28.488-30.234-38.894-41.311-40.536m-83.018 6.718c-.823 4.778-5.476 13.348-17.505 9.406.374-3.807 4.399-11.019 17.505-9.406" clip-rule="evenodd"/><path fill="#333" d="M408.905 189.57v-86.938h-34.182V86.424h87.517v16.208h-34.182v86.938z"/><path fill="#333" d="M486.09 190.601q-13.113 0-22.984-5.157-9.725-5.305-15.176-14.441-5.304-9.135-5.304-20.776 0-11.788 5.157-20.777 5.304-9.136 14.439-14.293Q471.504 110 483.291 110q11.492 0 20.479 5.01 8.988 5.01 14.145 14.146 5.156 9.135 5.156 21.513 0 1.179-.147 2.652 0 1.474-.147 2.8h-65.565v-12.23h55.841l-7.22 3.831q.147-6.778-2.799-11.936-2.947-5.157-8.104-8.104-5.009-2.947-11.639-2.947-6.778 0-11.934 2.947-5.01 2.947-7.957 8.252-2.799 5.157-2.799 12.23v2.947q0 7.072 3.241 12.525 3.242 5.451 9.135 8.399t13.555 2.947q6.63 0 11.934-2.063t9.43-6.484l9.871 11.346q-5.304 6.19-13.407 9.578-7.956 3.242-18.27 3.242M537.815 189.57v-78.686h17.533v21.661l-2.062-6.336q3.535-7.958 11.05-12.083Q571.997 110 583.342 110v17.535a9 9 0 0 0-2.21-.295 15 15 0 0 0-2.063-.147q-10.46 0-16.649 6.188-6.188 6.041-6.188 18.125v38.164zM644.774 189.57v-15.914l-1.031-3.389v-27.85q0-8.105-4.862-12.525-4.863-4.567-14.734-4.567-6.63 0-13.113 2.062-6.335 2.063-10.755 5.747l-7.22-13.409q6.336-4.863 15.029-7.22 8.84-2.505 18.269-2.505 17.091 0 26.373 8.252 9.43 8.105 9.43 25.197v46.121zm-24.752 1.031q-8.84 0-15.471-2.947-6.63-3.095-10.313-8.399-3.536-5.452-3.536-12.23 0-6.631 3.094-11.936 3.242-5.304 10.461-8.399t19.153-3.094h22.837v12.23h-21.511q-9.43 0-12.67 3.095-3.242 2.946-3.242 7.367 0 5.01 3.978 7.957t11.05 2.947q6.778 0 12.082-3.094 5.451-3.094 7.809-9.136l3.094 11.051q-2.652 6.926-9.577 10.757-6.777 3.831-17.238 3.831M680.786 189.57v-11.641l48.474-58.646 3.388 6.336H681.67v-14.735h65.712v11.641l-48.474 58.646-3.683-6.337h53.483v14.736zM841.175 191.043q-11.787 0-21.953-3.831-10.019-3.978-17.533-11.051-7.367-7.22-11.492-16.946-4.126-9.725-4.126-21.218t4.126-21.219q4.125-9.725 11.639-16.798 7.515-7.22 17.533-11.051 10.019-3.98 21.953-3.979 12.67 0 23.132 4.42 10.46 4.275 17.68 12.82l-12.376 11.641q-5.599-6.041-12.523-8.988-6.925-3.095-15.029-3.095t-14.881 2.653q-6.63 2.652-11.639 7.515-4.862 4.862-7.662 11.493-2.652 6.63-2.652 14.588t2.652 14.587q2.8 6.631 7.662 11.494 5.009 4.863 11.639 7.515 6.778 2.652 14.881 2.652t15.029-2.947q6.924-3.094 12.523-9.283l12.376 11.788q-7.22 8.399-17.68 12.82-10.461 4.42-23.279 4.42M938.941 110q9.43 0 16.797 3.684 7.514 3.684 11.787 11.346 4.272 7.515 4.272 19.45v45.09H953.38v-42.732q0-10.462-5.009-15.619-4.863-5.158-13.702-5.158-6.483 0-11.493 2.653-5.009 2.652-7.808 7.957-2.652 5.157-2.652 13.114v39.785h-18.417V80.235h18.417v51.868l-3.978-6.484q4.125-7.515 11.934-11.493Q928.628 110 938.941 110M992.213 189.57v-78.686h18.417v78.686zm9.287-91.653q-5.162 0-8.55-3.242-3.241-3.24-3.241-7.81 0-4.715 3.241-7.809 3.388-3.24 8.55-3.241c3.43 0 6.23 1.031 8.39 3.094q3.39 2.948 3.39 7.515 0 4.863-3.24 8.251c-2.16 2.162-5.01 3.242-8.54 3.242M1077.97 110q9.435 0 16.8 3.684 7.515 3.684 11.79 11.346c2.84 5.01 4.27 11.493 4.27 19.45v45.09h-18.42v-42.732q0-10.462-5.01-15.619c-3.24-3.439-7.81-5.158-13.7-5.158q-6.48 0-11.49 2.653c-3.34 1.768-5.95 4.42-7.81 7.957-1.77 3.438-2.65 7.809-2.65 13.114v39.785h-18.42v-78.686h17.53v21.219l-3.09-6.484c2.75-5.01 6.73-8.841 11.93-11.493q7.965-4.126 18.27-4.126M1134.81 219.187q-5.745 0-11.49-1.915-5.745-1.917-9.57-5.305l7.36-13.556a22.3 22.3 0 0 0 6.34 3.978c2.36.982 4.76 1.474 7.22 1.474q5.01 0 8.1-2.505c2.06-1.67 3.98-4.47 5.75-8.399l4.56-10.315 1.48-2.21 29.76-69.55H1202l-36.83 85.022q-3.69 8.841-8.25 13.998-4.425 5.157-10.02 7.22-5.46 2.063-12.09 2.063m16.21-26.818-35.51-81.485h19.16l28.88 67.929z"/></svg>