<svg xmlns="http://www.w3.org/2000/svg" fill="none" viewBox="0 0 168 35"><path fill="#faf7f2" fill-rule="evenodd" d="M23.337 6.804c.24-.25 1.047-.753 2.352-.753-.732-.334-3.136-.852-6.9-.25C20.159 5.1 22.96 2.96 23.21 0c-.899 1.296-3.695 4.201-7.684 5.456.773-.69 2.189-2.628 1.662-4.86-.648 1.473-3.011 4.734-7.277 5.988-.481.147-1.581.69-2.133 2.195-.21.408-1.048 1.305-2.729 1.63-.366.032-1.16 0-1.443 0a.9.9 0 0 0-.596.628c-.055.22-.175.715 0 1.317.303.585 1.236 1.806 2.54 2.006-.23-.261-.551-.909 0-1.41.178-.022.59-.05.816 0s1.433-.46 2.008-.722c.522-.188 1.706-.445 2.258.031.552.477-.523 1.056-1.13 1.286-.24.146-.896.62-1.599 1.348-.702.728-1.63.429-2.007.188-.021.544.313 1.643 1.819 1.694.282.02 1.01-.145 1.662-.972.653-.828 1.694-1.13 2.102-1.255.188-.057.57-.181.721-.156 1.224.156 3.81-.126 4.614-2.634 1.725.45 4.266 2.132.627 5.267-.721.513-2.603 1.573-4.14 2.258-2.04.91-9.41 4.107-11.606 6.584C.92 26.65.005 28.077 0 29.657c-.004 1.252.565 2.6 2.23 3.798 1.542 1.11 3.749 1.516 6.047 1.544 4.712.056 9.81-1.479 10.357-1.795 3.953-1.745 13.074-5.411 17.942-6.114 6.085-.878 10.32-.031 10.978.314-1.39-.816-5.658-2.302-11.605-1.725V22.2c.136-.418.652-1.254 1.63-1.254.98 0 1.37.773 1.444 1.16v2.445c1.61-.104 5.777.207 9.566 2.29l-.752-9.093-1.788-.628v1.63l-1.192-.407v-1.63l-1.757-.564v1.724l-1.129-.408v-1.599l-1.568-.47-1.569.47v1.6l-1.254.407v-1.724l-1.976.564v1.756l-1.255.282v-1.63l-2.07.627-.126 4.452c-1.537.355-6.242 1.793-12.766 4.703-8.155 3.637-10.28 2.762-11.857 2.853-1.63.094-5.206-2.257-2.101-4.609-.377.429-.872 1.58.157 2.76 1.029 1.178 3.398 1.076 4.454.877.261-.596 2.107-2.345 7.402-4.578s7.12-3.333 7.372-3.605c1.808-1.045 5.2-4.133 4.297-8.121s-4.226-5.445-5.774-5.675m-11.603.94c-.115.67-.766 1.87-2.447 1.317.052-.533.615-1.542 2.447-1.316" clip-rule="evenodd"/><path fill="#faf7f2" d="M57.151 26.54V14.369h-4.777v-2.27h12.232v2.27h-4.778v12.17z"/><path fill="#faf7f2" d="M67.94 26.684q-1.833 0-3.213-.722a5.46 5.46 0 0 1-2.121-2.021q-.741-1.28-.742-2.91 0-1.65.721-2.908a5.3 5.3 0 0 1 2.018-2.001q1.298-.722 2.945-.722 1.606 0 2.862.701a5.07 5.07 0 0 1 1.977 1.98q.72 1.28.721 3.013 0 .165-.02.371 0 .206-.021.392h-9.164v-1.712h7.805l-1.01.536q.022-.95-.39-1.67a3 3 0 0 0-1.133-1.136q-.701-.412-1.627-.412-.947 0-1.668.412-.7.413-1.112 1.156-.39.722-.391 1.712v.413q0 .99.453 1.753t1.277 1.176 1.894.412q.927 0 1.668-.288a3.55 3.55 0 0 0 1.318-.908l1.38 1.588a4.9 4.9 0 0 1-1.874 1.341q-1.113.454-2.554.454M75.169 26.54V15.524h2.45v3.032l-.288-.887a3.5 3.5 0 0 1 1.544-1.691q1.071-.578 2.657-.578v2.455a1.3 1.3 0 0 0-.309-.041 2 2 0 0 0-.288-.021q-1.462 0-2.327.866-.865.846-.865 2.538v5.343zM90.118 26.54v-2.228l-.144-.475v-3.899q0-1.134-.68-1.753-.68-.64-2.059-.64-.927 0-1.832.29-.886.288-1.504.804l-1.009-1.877q.885-.681 2.1-1.011a9.3 9.3 0 0 1 2.554-.351q2.389 0 3.686 1.155 1.318 1.136 1.318 3.528v6.457zm-3.46.144q-1.235 0-2.162-.412-.926-.434-1.441-1.176a3.1 3.1 0 0 1-.494-1.712q0-.929.432-1.672.454-.742 1.462-1.175 1.01-.434 2.677-.434h3.192v1.713h-3.006q-1.319 0-1.771.433a1.34 1.34 0 0 0-.453 1.031q0 .703.556 1.114.555.413 1.544.413.947 0 1.689-.433a2.44 2.44 0 0 0 1.091-1.28l.432 1.548q-.37.969-1.338 1.506-.948.536-2.41.536M95.152 26.54v-1.63l6.774-8.21.474.887h-7.125v-2.063h9.184v1.63l-6.775 8.21-.514-.887h7.475v2.063zM117.569 26.746a8.6 8.6 0 0 1-3.069-.536 7.7 7.7 0 0 1-2.45-1.547 7.3 7.3 0 0 1-1.607-2.373q-.576-1.361-.576-2.97t.576-2.971a6.9 6.9 0 0 1 1.627-2.352 7.2 7.2 0 0 1 2.451-1.547q1.4-.557 3.068-.557 1.771 0 3.233.619a6.3 6.3 0 0 1 2.471 1.795l-1.729 1.63a5.1 5.1 0 0 0-1.751-1.259 5.1 5.1 0 0 0-2.1-.433 5.7 5.7 0 0 0-2.08.371 5 5 0 0 0-1.627 1.052q-.68.68-1.071 1.61-.37.927-.37 2.042 0 1.113.37 2.042a5 5 0 0 0 1.071 1.609 5 5 0 0 0 1.627 1.052 5.7 5.7 0 0 0 2.08.371q1.132 0 2.1-.412a5.25 5.25 0 0 0 1.751-1.3l1.729 1.65a6.6 6.6 0 0 1-2.471 1.795q-1.462.62-3.253.619M131.233 15.4q1.318 0 2.348.516 1.05.515 1.647 1.588.597 1.053.597 2.723v6.313h-2.574v-5.983q0-1.464-.7-2.186-.68-.723-1.915-.722-.906 0-1.606.37a2.6 2.6 0 0 0-1.092 1.115q-.37.722-.37 1.836v5.57h-2.575V11.233h2.575v7.261l-.556-.907a3.85 3.85 0 0 1 1.668-1.61q1.112-.577 2.553-.577M138.679 26.54V15.524h2.574V26.54zm1.297-12.832q-.72 0-1.194-.453a1.5 1.5 0 0 1-.453-1.094q0-.66.453-1.093.473-.454 1.194-.454t1.174.433q.474.413.474 1.052 0 .681-.454 1.156-.453.453-1.194.453M150.665 15.4q1.318 0 2.348.516 1.05.515 1.647 1.588.597 1.053.597 2.723v6.313h-2.574v-5.983q0-1.464-.7-2.186-.68-.723-1.915-.722-.906 0-1.606.37a2.6 2.6 0 0 0-1.092 1.115q-.37.722-.37 1.836v5.57h-2.575V15.524h2.451v2.97l-.433-.907a3.86 3.86 0 0 1 1.668-1.61q1.113-.577 2.554-.577M158.61 30.686q-.804 0-1.606-.268-.804-.268-1.339-.743l1.03-1.898q.39.351.885.557a2.6 2.6 0 0 0 1.009.207q.7 0 1.133-.35.432-.352.803-1.177l.638-1.444.206-.31 4.16-9.736H168l-5.148 11.903q-.515 1.237-1.153 1.96-.618.721-1.401 1.01a4.7 4.7 0 0 1-1.688.29m2.265-3.754-4.963-11.408h2.677l4.036 9.51z"/></svg>